<svg xmlns="http://www.w3.org/2000/svg" version="1.1" xmlns:xlink="http://www.w3.org/1999/xlink" xmlns:svgjs="http://svgjs.dev/svgjs" width="1000" height="1000" viewBox="0 0 1000 1000"><rect width="1000" height="1000" fill="#89939e"></rect><g transform="matrix(0.7,0,0,0.7,149.57605563665675,423.119268968127)"><svg viewBox="0 0 396 87" data-background-color="#89939e" preserveAspectRatio="xMidYMid meet" height="219" width="1000" xmlns="http://www.w3.org/2000/svg" xmlns:xlink="http://www.w3.org/1999/xlink"><g id="tight-bounds" transform="matrix(1,0,0,1,0.24008861730862918,0.1309432470511922)"><svg viewBox="0 0 395.52 86.73794869712353" height="86.73794869712353" width="395.52"><g><svg viewBox="0 0 395.52 86.73794869712353" height="86.73794869712353" width="395.52"><g><svg viewBox="0 0 395.52 86.73794869712353" height="86.73794869712353" width="395.52"><g id="textblocktransform"><svg viewBox="0 0 395.52 86.73794869712353" height="86.73794869712353" width="395.52" id="textblock"><g><svg viewBox="0 0 395.52 86.73794869712353" height="86.73794869712353" width="395.52"><path d="M394.594 18.604C392.735 9.6 387.435 7.097 387.435 7.097 371.165-2.176 350.86-0.177 332.619 1.155 300.414 1.209 268.339 3.19 236.208 4.252 168.767 4.414 100.749 1.749 33.643 8.322 27.339 10.339-6.54 8.718 1.121 19.756 3.129 24.348 10.456 29.444 10.232 33.657 11.236 34.396 12.631 32.703 13.226 33.765 15.309 36.628 18.711 35.278 21.501 36.971 17.614 41.49 20.403 45.254 23.062 49.197 18.377 50.223 12.371 49.737 9.675 53.141 9.396 55.607 7.89 55.139 6.235 55.031 5.026 54.959 2.59 55.229 2.999 56.004 4.394 58.651-1.594 60.181 2.162 62.774-0.422 65.583 3.948 68.014 3.353 71.057 3.278 71.669 3.687 72.192 4.338 72.336 7.22 73.11 3.018 74.623 3.464 76.261 33.029 87.461 65.104 79.718 95.394 84.868 103.259 81.267 97.346 86.147 100.489 85.391 102.943 84.508 104.728 88.164 107.499 86.093 107.927 85.499 107.276 84.094 108.8 84.364 109.6 84.508 110.307 84.472 110.418 83.644 110.586 82.402 109.117 83.176 108.726 82.528 112.947 79.25 111.906 87.047 115.866 86.723 115.68 85.769 114.528 84.4 116.889 84.58 119.232 83.212 119.306 82.077 121.389 85.157 121.463 85.823 121.835 86.291 122.43 86.615 128.938 83.266 135.409 87.804 142.233 86.291 146.417 84.634 150.433 87.191 154.672 86.561 156.16 86.057 157.666 85.157 159.098 86.669 176.632 86.993 195.319 85.643 211.943 86.723 256.364 84.706 303.835 87.551 350.674 84.886 361.719 83.86 373.192 82.402 383.958 81.231 383.958 81.231 392.679 78.026 392.679 63.62S394.538 51.016 394.817 39.545C395.096 28.075 396.398 27.607 394.538 18.604Z" opacity="1" fill="#000000" data-fill-palette-color="tertiary"></path><g transform="matrix(1,0,0,1,55.76832,26.230666666666668)"><svg width="283.98335999999995" viewBox="0.800000011920929 -32.54999923706055 354.55999755859375 42.79999923706055" height="34.276615363790185" data-palette-color="#89939e"><path d="M21.15-2.05L21.15-2.05Q19.95-0.2 19.95 0.35 19.95 0.9 20.4 1.15L20.4 1.15Q20.4 1.2 19.5 1.9L19.5 1.9Q18.7 2.3 17.7 2.3 16.7 2.3 16.25 2.08 15.8 1.85 15.95 1.35L15.95 1.35Q16.65-0.9 21.2-7.68 25.75-14.45 27.3-17.25L27.3-17.25Q30.65-23.3 30.65-26.9L30.65-26.9Q30.65-28.4 30.15-29.45L30.15-29.45Q29.15-31.5 25.4-31.5L25.4-31.5Q19.55-31.5 13.3-26.45L13.3-26.45Q8.3-22.4 5.65-17.88 3-13.35 3-9.8L3-9.8Q3-4.7 7.5-4.6L7.5-4.6Q7.7-4.6 7.9-4.6L7.9-4.6Q13.65-4.6 16.8-8.75L16.8-8.75Q18-10.4 18-11.55 18-12.7 17.5-13L17.5-13Q17.45-13.05 17.45-13.2 17.45-13.35 17.75-13.35L17.75-13.35Q19.05-13.35 19.05-11.65L19.05-11.65Q19.05-10.6 18.03-8.8 17-7 14.4-5.4 11.8-3.8 8.35-3.8 4.9-3.8 2.85-5.95 0.8-8.1 0.8-11.6L0.8-11.6Q0.8-19.5 11.1-27.75L11.1-27.75Q13.75-29.85 18.07-31.2 22.4-32.55 26.35-32.55 30.3-32.55 31.73-31.18 33.15-29.8 33.15-27.5L33.15-27.5Q33.15-24 30.3-18.05L30.3-18.05Q29.4-16.2 26.25-11.3L26.25-11.3 30.1-16.2Q32.9-19.85 39.8-26.6L39.8-26.6Q41.3-28.05 43.13-29.03 44.95-30 46.25-30L46.25-30Q48.05-30 48.05-28.1L48.05-28.1Q48.05-26.45 46.48-23.13 44.9-19.8 43.3-16.82 41.7-13.85 41.35-12.93 41-12 40.85-11.45 40.7-10.9 40.65-10.85L40.65-10.85Q40.8-11.1 43.95-14.68 47.1-18.25 53.25-23.6L53.25-23.6 61.25-30.2Q62.2-31 62.95-31 63.7-31 64.17-29.75 64.65-28.5 64.65-27.73 64.65-26.95 62.25-24.5L62.25-24.5Q56-18.1 51.65-10.5 47.3-2.9 47.3 0.35L47.3 0.35Q47.3 1.2 47.6 1.53 47.9 1.85 48.55 1.73 49.2 1.6 51.28 0.7 53.35-0.2 54-0.35L54-0.35Q54.25-0.25 54.25-0.1L54.25-0.1Q54.25 0.65 51.63 2 49 3.35 47.68 3.35 46.35 3.35 46.05 2.9L46.05 2.9Q45.15 1.6 45.15-0.25L45.15-0.25Q45.15-4.55 49.75-12.6L49.75-12.6Q52.7-17.65 58.85-26.2L58.85-26.2Q54.05-22.3 45.85-14.25 37.65-6.2 35.1-1.65L35.1-1.65Q33.8 0.7 31.95 0.7L31.95 0.7Q31.1 0.7 31.1 0.1L31.1 0.1Q31.1-0.1 32.13-1.7 33.15-3.3 36.65-9.2L36.65-9.2Q45.25-24.15 45.25-27.2L45.25-27.2Q45.25-28 44.7-28L44.7-28Q43.9-28 42.35-26.65L42.35-26.65Q36.8-22 30.55-14.5 24.3-7 21.15-2.05ZM59.35 0.65L59.35 0.65Q58.8 0.65 58.35 0.5L58.35 0.5Q55.15-0.4 55.15-3.1L55.15-3.1Q55.15-6.6 59.55-11.2 63.95-15.8 67.45-15.8L67.45-15.8Q68.6-15.8 69.32-15.18 70.05-14.55 70.05-13.65L70.05-13.65Q70.05-10.85 65.82-8.3 61.6-5.75 58.95-5.75L58.95-5.75Q58.55-5.75 58.25-5.85L58.25-5.85Q57.5-4.5 57.5-3L57.5-3Q57.5-0.4 59.97-0.4 62.45-0.4 66.4-3.75L66.4-3.75Q69.45-6.2 71.6-8.95L71.6-8.95Q72.05-9.55 72.37-9.55 72.7-9.55 72.7-9.25 72.7-8.95 72.3-8.4L72.3-8.4Q69.6-4.85 65.8-2.1 62 0.65 59.35 0.65ZM68.8-13.75L68.8-13.75Q68.8-14.35 67.52-14.35 66.25-14.35 63.9-12.4L63.9-12.4Q60.75-9.8 59-6.95L59-6.95Q59.3-6.85 59.65-6.85L59.65-6.85Q61.55-6.85 64.72-8.88 67.9-10.9 68.7-13.3L68.7-13.3Q68.8-13.55 68.8-13.75ZM86.35-15.25L86.35-15.25 87.05-15.4Q87.7-15.4 88.07-15 88.45-14.6 88.45-14.38 88.45-14.15 88.4-13.88 88.35-13.6 86.95-11.35L86.95-11.35Q85.2-8.3 84.05-6.2L84.05-6.2Q80 1.35 77.85 4.15L77.85 4.15Q73.25 10.25 69.1 10.25L69.1 10.25Q67.65 10.25 66.57 9.03 65.5 7.8 65.45 6.3L65.45 6.3Q65.6 5.7 65.9 5.7L65.9 5.7Q66.05 5.7 66.15 6.05L66.15 6.05Q66.4 7.35 67.1 8.05 67.8 8.75 68.5 8.75L68.5 8.75Q71.35 8.75 74.6 5L74.6 5Q76.75 2.5 79.35-2.3L79.35-2.3 81.85-7.25 78.1-3.45Q74.5 0 73.17 0 71.85 0 70.65-0.9L70.65-0.9Q69.3-1.9 69.3-3.55L69.3-3.55Q69.3-7.2 74.42-12.25 79.55-17.3 83.75-17.3L83.75-17.3Q85.45-17.3 85.95-16.2L85.95-16.2Q86.1-15.8 86.2-15.53 86.3-15.25 86.35-15.25ZM71.4-2.95L71.4-2.95Q71.4-1.15 72.65-1.15L72.65-1.15Q75.55-1.15 80.55-7.5L80.55-7.5 85.85-14.8Q85.55-15.5 84.6-15.5L84.6-15.5Q81.5-15.5 76.45-10.73 71.4-5.95 71.4-2.95ZM104.74-14.95L104.74-14.95 105.44-15.1Q105.99-15.1 106.49-14.65 106.99-14.2 106.99-13.95 106.99-13.7 103.89-9.13 100.79-4.55 100.79-2.75L100.79-2.75Q100.79-2.6 100.84-2.45L100.84-2.45Q101.09-1.3 101.94-1.3L101.94-1.3Q104.54-1.3 111.44-9.9L111.44-9.9Q111.59-10.1 111.79-10.1 111.99-10.1 111.99-9.73 111.99-9.35 111.54-8.75L111.54-8.75Q105.14-0.2 101.79-0.2L101.79-0.2Q101.34-0.2 100.94-0.35L100.94-0.35Q98.74-1.2 98.74-3.65L98.74-3.65Q98.74-4.5 98.94-5.35L98.94-5.35 95.84-2.35Q92.89 0.25 91.57 0.25 90.24 0.25 89.04-0.6L89.04-0.6Q87.69-1.6 87.69-3.25L87.69-3.25Q87.69-6.9 92.79-11.98 97.89-17.05 102.14-17.05L102.14-17.05Q103.79-17.05 104.34-15.9L104.34-15.9Q104.49-15.5 104.59-15.23 104.69-14.95 104.74-14.95ZM89.79-2.65L89.79-2.65Q89.79-0.85 91.04-0.85L91.04-0.85Q93.94-0.85 98.94-7.2L98.94-7.2 104.24-14.5Q103.84-15.2 102.94-15.2L102.94-15.2Q99.89-15.2 94.84-10.48 89.79-5.75 89.79-2.65ZM146.04-24.35L146.04-24.35 145.94-22.75Q145.94-19.5 149.44-19.5L149.44-19.5Q152.34-19.5 155.29-21.5 158.24-23.5 158.24-25.55 158.24-27.6 155.84-29L155.84-29Q154.24-29.95 150.84-29.95L150.84-29.95Q145.79-29.95 139.56-27.55 133.34-25.15 127.89-19.85L127.89-19.85Q120.74-12.85 120.74-7L120.74-7Q120.74-3.55 123.36-1.45 125.99 0.65 130.24 0.65L130.24 0.65Q136.14 0.65 143.94-3.8L143.94-3.8Q150.44-7.45 153.69-11.55L153.69-11.55 155.14-13.7Q154.24-13.7 147.69-13.18 141.14-12.65 140.19-12.43 139.24-12.2 138.64-12.2L138.64-12.2Q136.99-12.2 136.99-13L136.99-13Q136.99-14.25 140.79-15.08 144.59-15.9 153.64-15.9 162.69-15.9 165.59-15.2L165.59-15.2Q166.04-15.1 166.04-14.95L166.04-14.95Q166.04-14.4 162.59-14.15L162.59-14.15Q158.29-13.8 158.19-13.8L158.19-13.8Q153.09-7.1 144.99 6.9L144.99 6.9Q144.54 7.7 144.11 7.7 143.69 7.7 143.69 7.05L143.69 7.05Q143.69 5.3 146.49 0.3L146.49 0.3 149.99-6.25Q146.79-3.5 141.84-1.1L141.84-1.1Q135.39 1.95 129.66 1.95 123.94 1.95 120.91-0.53 117.89-3 117.89-7.15L117.89-7.15Q117.89-14.8 127.14-22.7L127.14-22.7Q131.79-26.7 138.39-29.35 144.99-32 149.96-32 154.94-32 157.59-30.05L157.59-30.05Q159.64-28.45 159.64-26.45L159.64-26.45Q159.64-23.6 156.11-20.98 152.59-18.35 149.14-18.35L149.14-18.35Q144.49-18.35 144.49-23.7L144.49-23.7Q144.49-25.75 145.34-25.75L145.34-25.75Q146.04-25.75 146.04-24.35ZM173.09-10.6L173.09-10.6Q173.09-8.85 169.74-4.75L169.74-4.75Q165.79 0.1 162.99 0.1L162.99 0.1 162.19 0.1Q160.89 0.1 160.14-1.25L160.14-1.25Q159.54-2.2 159.54-3.35L159.54-3.35Q159.54-6.35 163.91-11.78 168.29-17.2 170.99-17.2L170.99-17.2Q173.54-17.2 173.54-14.5L173.54-14.5Q173.54-13.8 173.29-12.7L173.29-12.7Q173.34-12.55 174.24-12.55 175.14-12.55 176.99-13.5L176.99-13.5Q176.94-12.65 173.04-11.05L173.04-11.05Q173.09-10.85 173.09-10.6ZM169.84-13.2L169.84-13.2Q168.14-13.2 165.01-9.2 161.89-5.2 161.89-3.3 161.89-1.4 163.09-1.4L163.09-1.4Q165.24-1.4 168.54-5.3 171.84-9.2 171.84-10.9L171.84-10.9Q171.04-11.35 169.84-13.2ZM177.43-2.05L177.43-2.05Q175.43-0.65 174.58-0.65L174.58-0.65Q173.43-0.65 173.43-1.9L173.43-1.9Q173.43-2.35 173.73-3 174.03-3.65 174.33-3.65L174.33-3.65Q174.78-3.65 174.53-2.9L174.53-2.9Q174.38-2.15 174.98-2.15 175.58-2.15 176.43-2.75L176.43-2.75 174.53-4.2Q174.43-4.3 174.43-4.55 174.43-4.8 174.93-5.28 175.43-5.75 175.71-5.75 175.98-5.75 178.13-4.05L178.13-4.05Q184.33-11.05 187.23-13.25L187.23-13.25Q183.28-14.45 181.38-14.45L181.38-14.45Q180.83-14.45 180.33-14.38 179.83-14.3 179.26-13.78 178.68-13.25 178.68-12.6 178.68-11.95 179.23-11.53 179.78-11.1 179.78-10.85 179.78-10.6 179.41-10.6 179.03-10.6 178.18-11.6L178.18-11.6Q177.38-12.6 177.38-13.65L177.38-13.65Q177.38-15.4 179.93-15.95L179.93-15.95Q181.28-16.2 182.68-16.2 184.08-16.2 189.58-14.4L189.58-14.4Q190.28-14.8 191.08-14.8L191.08-14.8Q193.18-14.8 193.18-13.55L193.18-13.55Q193.18-13.05 192.53-12.63 191.88-12.2 190.98-12.2 190.08-12.2 189.33-12.55L189.33-12.55Q184.58-9.6 179.13-3.25L179.13-3.25 180.93-1.85Q183.08-0.45 185.93-0.45 188.78-0.45 190.13-1.35 191.48-2.25 191.48-3.65L191.48-3.65Q191.48-4.3 191.23-4.88 190.98-5.45 191.68-5.45L191.68-5.45Q191.93-5.45 192.18-4.88 192.43-4.3 192.43-3.5L192.43-3.5Q192.43-1.5 190.53-0.2 188.63 1.1 185.63 1.1L185.63 1.1Q182.33 1.1 180.18-0.15L180.18-0.15Q179.33-0.6 177.43-2.05ZM195.33-2.5Q195.33-1 196.98-1 198.63-1 201.23-2.75 203.83-4.5 206.28-7.5L206.28-7.5Q206.88-8.3 207.23-8.3 207.58-8.3 207.58-8L207.58-8Q207.58-7.7 205.53-5.4L205.53-5.4Q200.53 0.1 197.18 0.1L197.18 0.1Q195.53 0.1 194.38-0.68 193.23-1.45 193.23-3.08 193.23-4.7 194.08-6.85L194.08-6.85Q195.53-10.25 198.73-15.4L198.73-15.4Q204.58-24.9 207.03-24.9L207.03-24.9Q207.53-24.9 208.06-24.53 208.58-24.15 208.63-23.7L208.63-23.7Q207.48-22.15 204.21-17.75 200.93-13.35 199.68-11.43 198.43-9.5 197.81-8.55 197.18-7.6 196.88-7.08 196.58-6.55 196.18-5.7L196.18-5.7Q195.33-4 195.33-2.5ZM219.53 0.3L219.53 0.3Q219.28 0.35 218.45 0.35 217.63 0.35 216.8-0.3 215.98-0.95 215.98-1.98 215.98-3 216.35-4.25 216.73-5.5 216.88-6.15L216.88-6.15Q211.13 0.55 207.88 0.55L207.88 0.55Q205.83 0.55 205.63-2L205.63-2Q205.63-2.2 205.63-2.35L205.63-2.35Q205.63-4.5 208.23-8.15L208.23-8.15Q206.78-6.85 205.28-5.15L205.28-5.15Q205.08-4.95 204.78-4.95L204.78-4.95Q204.58-4.95 204.58-5.2 204.58-5.45 205.03-6.05L205.03-6.05 211.93-14.15Q213.23-15.65 214.58-15.65 215.93-15.65 215.93-14.75L215.93-14.75Q215.93-14.4 215.63-14.1L215.63-14.1Q213.63-12.25 210.6-7.95 207.58-3.65 207.58-1.6L207.58-1.6Q207.58-0.7 208.18-0.7L208.18-0.7Q210.28-0.7 214.28-4.85L214.28-4.85Q215.68-6.25 219.48-11.03 223.28-15.8 224.48-15.8L224.48-15.8Q226.28-15.8 226.28-14.4L226.28-14.4Q226.28-13.9 224.18-11.5L224.18-11.5Q221.33-8.05 219.83-5.88 218.33-3.7 218.33-2.35 218.33-1 219.08-1L219.08-1Q219.43-1 219.88-1.2L219.88-1.2Q223.33-2.7 228.13-8.2L228.13-8.2Q228.43-8.55 228.73-8.55 229.03-8.55 229.03-8.22 229.03-7.9 228.68-7.5L228.68-7.5Q226.53-5 223.63-2.48 220.73 0.05 219.53 0.3ZM237.03 0.6L237.03 0.6Q233.08 0.6 230.33-5.65L230.33-5.65Q229.63-4.6 227.18 0.25L227.18 0.25Q225.38-0.45 225.38-1.65L225.38-1.65Q225.38-3.8 231.83-13.45 238.28-23.1 240.68-24.8L240.68-24.8Q240.88-24.95 241.48-24.95L241.48-24.95Q243.03-24.95 243.03-24.15L243.03-24.15Q243.03-23.75 239.55-19.65 236.08-15.55 235.68-14.7L235.68-14.7Q240.23-17.05 242.93-17.05L242.93-17.05Q244.48-17.05 245.58-15.8L245.58-15.8Q246.63-14.75 246.63-13.65L246.63-13.65Q246.63-13.5 246.63-13.35L246.63-13.35Q246.23-10.5 242.63-8.65L242.63-8.65Q239.73-7.1 237.23-7.1 234.73-7.1 233.73-7.75L233.73-7.75Q233.43-7.8 233.25-7.6 233.08-7.4 233.18-7.1L233.18-7.1Q234.58-0.9 237.83-0.9L237.83-0.9Q239.53-0.9 242.2-2.8 244.88-4.7 247.78-8.15L247.78-8.15Q248.13-8.5 248.4-8.5 248.68-8.5 248.68-8.22 248.68-7.95 248.33-7.45L248.33-7.45Q245.63-4.15 243.23-2.25L243.23-2.25Q239.58 0.6 237.03 0.6ZM244.23-14.7L244.23-14.7Q244.23-15.1 243.78-15.5 243.33-15.9 242.83-15.9L242.83-15.9Q240.13-15.9 236.35-13.65 232.58-11.4 231.73-8.55L231.73-8.55Q232.18-8.55 234.13-8.4L234.13-8.4Q236.38-8.4 240.03-10.25L240.03-10.25Q244.23-12.35 244.23-14.7ZM295.92-21.4L295.92-21.4Q294.07-20.65 292.75-20.65 291.42-20.65 291.42-21.2L291.42-21.2Q291.42-21.55 292.9-21.6 294.37-21.65 295.02-21.95L295.02-21.95Q296.92-22.95 296.92-24.9L296.92-24.9Q296.92-25.9 296.37-27L296.37-27Q294.77-29.85 288.62-29.85L288.62-29.85Q285.07-29.85 281.52-28.78 277.97-27.7 275.57-25.48 273.17-23.25 273.17-21.35L273.17-21.35Q273.17-18.45 278.92-17.1L278.92-17.1 284.82-16Q288.37-15.35 290.12-14.2L290.12-14.2Q292.42-12.8 292.42-10.2L292.42-10.2Q292.42-9.15 292.07-7.95L292.07-7.95Q290.47-2.55 283.82 0.3L283.82 0.3Q278.27 2.75 270.72 2.75L270.72 2.75Q268.57 2.75 266.97 2.55L266.97 2.55Q268.57 3.45 271.17 4.1L271.17 4.1Q271.37 4.15 271.37 4.3L271.37 4.3Q271.37 4.75 270.32 4.75L270.32 4.75Q268.27 4.75 265.22 2.3L265.22 2.3Q261.07 1.65 259.02 0L259.02 0Q257.72-1.05 256.62-3.1 255.52-5.15 255.52-6.8 255.52-8.45 256.17-9.55L256.17-9.55Q257.67-12.2 259.97-12.2L259.97-12.2Q261.72-12.2 262.02-9.25L262.02-9.25Q262.72-3.55 262.97-2.75L262.97-2.75Q263.72-0.3 265.52 1.4L265.52 1.4Q267.62 1.85 270.07 1.85L270.07 1.85Q275.47 1.85 280.67-0.3 285.87-2.45 288.17-6.4L288.17-6.4Q289.12-7.95 289.12-9.15L289.12-9.15Q289.12-11.5 284.97-12.8L284.97-12.8 276.17-14.8Q273.47-15.45 271.85-16.95 270.22-18.45 270.22-20.4L270.22-20.4Q270.22-23.4 273.97-26.4L273.97-26.4Q276.82-28.7 280.95-29.98 285.07-31.25 289.05-31.25 293.02-31.25 295.62-30.1L295.62-30.1Q298.97-28.55 298.97-25.58 298.97-22.6 295.92-21.4ZM263.72 0.9L263.72 0.9Q260.82-2.3 260.02-7.85L260.02-7.85Q259.57-11 259.17-11 258.77-11 258.42-10.78 258.07-10.55 257.72-9.8 257.37-9.05 257.37-7.85L257.37-7.85Q257.37-4 260.07-1.25L260.07-1.25Q261.42 0.15 263.72 0.9ZM310.37-14.95L310.37-14.95 311.07-15.1Q311.62-15.1 312.12-14.65 312.62-14.2 312.62-13.95 312.62-13.7 309.52-9.13 306.42-4.55 306.42-2.75L306.42-2.75Q306.42-2.6 306.47-2.45L306.47-2.45Q306.72-1.3 307.57-1.3L307.57-1.3Q310.17-1.3 317.07-9.9L317.07-9.9Q317.22-10.1 317.42-10.1 317.62-10.1 317.62-9.73 317.62-9.35 317.17-8.75L317.17-8.75Q310.77-0.2 307.42-0.2L307.42-0.2Q306.97-0.2 306.57-0.35L306.57-0.35Q304.37-1.2 304.37-3.65L304.37-3.65Q304.37-4.5 304.57-5.35L304.57-5.35 301.47-2.35Q298.52 0.25 297.19 0.25 295.87 0.25 294.67-0.6L294.67-0.6Q293.32-1.6 293.32-3.25L293.32-3.25Q293.32-6.9 298.42-11.98 303.52-17.05 307.77-17.05L307.77-17.05Q309.42-17.05 309.97-15.9L309.97-15.9Q310.12-15.5 310.22-15.23 310.32-14.95 310.37-14.95ZM295.42-2.65L295.42-2.65Q295.42-0.85 296.67-0.85L296.67-0.85Q299.57-0.85 304.57-7.2L304.57-7.2 309.87-14.5Q309.47-15.2 308.57-15.2L308.57-15.2Q305.52-15.2 300.47-10.48 295.42-5.75 295.42-2.65ZM330.97-14.95L330.97-14.95 331.67-15.1Q332.22-15.1 332.72-14.65 333.22-14.2 333.22-13.95 333.22-13.7 330.12-9.13 327.02-4.55 327.02-2.75L327.02-2.75Q327.02-2.6 327.07-2.45L327.07-2.45Q327.32-1.3 328.17-1.3L328.17-1.3Q330.77-1.3 337.67-9.9L337.67-9.9Q337.82-10.1 338.02-10.1 338.22-10.1 338.22-9.73 338.22-9.35 337.77-8.75L337.77-8.75Q331.37-0.2 328.02-0.2L328.02-0.2Q327.57-0.2 327.17-0.35L327.17-0.35Q324.97-1.2 324.97-3.65L324.97-3.65Q324.97-4.5 325.17-5.35L325.17-5.35 322.07-2.35Q319.12 0.25 317.79 0.25 316.47 0.25 315.27-0.6L315.27-0.6Q313.92-1.6 313.92-3.25L313.92-3.25Q313.92-6.9 319.02-11.98 324.12-17.05 328.37-17.05L328.37-17.05Q330.02-17.05 330.57-15.9L330.57-15.9Q330.72-15.5 330.82-15.23 330.92-14.95 330.97-14.95ZM316.02-2.65L316.02-2.65Q316.02-0.85 317.27-0.85L317.27-0.85Q320.17-0.85 325.17-7.2L325.17-7.2 330.47-14.5Q330.07-15.2 329.17-15.2L329.17-15.2Q326.12-15.2 321.07-10.48 316.02-5.75 316.02-2.65ZM348.01-16.1L348.01-16.1 355.21-16.2Q355.36-16.1 355.36-16.05L355.36-16.05Q355.36-15.6 349.14-14.8 342.91-14 342.41-13.85L342.41-13.85Q341.46-13 338.91-8.78 336.36-4.55 336.36-2.6L336.36-2.6Q336.36-0.75 338.91-0.75L338.91-0.75Q340.11-0.75 342.06-1.5 344.01-2.25 345.06-2.9L345.06-2.9Q347.86-4.65 351.06-8.05L351.06-8.05Q351.76-8.75 352.01-8.75L352.01-8.75Q352.16-8.75 352.16-8.45 352.16-8.15 351.41-7.25L351.41-7.25Q348.81-4.05 345.56-2.1L345.56-2.1Q341.66 0.3 338.11 0.3L338.11 0.3Q336.56 0.3 335.59-0.38 334.61-1.05 334.61-3.1 334.61-5.15 336.41-8.72 338.21-12.3 339.16-14.05L339.16-14.05Q338.46-13.9 337.96-13.9L337.96-13.9Q336.51-13.9 336.51-15.05L336.51-15.05Q336.51-15.9 337.71-16.25L337.71-16.25Q337.86-16.25 338.16-16.3L338.16-16.3 341.06-16.3Q341.96-17.45 343.11-18.95L343.11-18.95Q344.51-20.75 345.01-20.75 345.51-20.75 346.26-20.35 347.01-19.95 347.01-19.4 347.01-18.85 344.61-16.15L344.61-16.15Q345.91-16.1 348.01-16.1Z" opacity="1" transform="matrix(1,0,0,1,0,0)" fill="#89939e" class="undefined-text-0" data-fill-palette-color="quaternary" id="text-0"></path></svg></g></svg></g></svg></g></svg></g><g></g></svg></g><defs></defs></svg><rect width="395.52" height="86.73794869712353" fill="none" stroke="none" visibility="hidden"></rect></g></svg></g></svg>